<svg width="21" height="21" viewBox="0 0 21 21" fill="none" xmlns="http://www.w3.org/2000/svg">
<path d="M12.5 3.5H16.5C16.7652 3.5 17.0196 3.60536 17.2071 3.79289C17.3946 3.98043 17.5 4.23478 17.5 4.5V8.5C17.5 8.76522 17.3946 9.01957 17.2071 9.20711C17.0196 9.39464 16.7652 9.5 16.5 9.5H12.5C12.2348 9.5 11.9804 9.39464 11.7929 9.20711C11.6054 9.01957 11.5 8.76522 11.5 8.5V4.5C11.5 4.23478 11.6054 3.98043 11.7929 3.79289C11.9804 3.60536 12.2348 3.5 12.5 3.5ZM4.5 3.5H8.5C8.76522 3.5 9.01957 3.60536 9.20711 3.79289C9.39464 3.98043 9.5 4.23478 9.5 4.5V8.5C9.5 8.76522 9.39464 9.01957 9.20711 9.20711C9.01957 9.39464 8.76522 9.5 8.5 9.5H4.5C4.23478 9.5 3.98043 9.39464 3.79289 9.20711C3.60536 9.01957 3.5 8.76522 3.5 8.5V4.5C3.5 4.23478 3.60536 3.98043 3.79289 3.79289C3.98043 3.60536 4.23478 3.5 4.5 3.5ZM12.5 11.5H16.5C16.7652 11.5 17.0196 11.6054 17.2071 11.7929C17.3946 11.9804 17.5 12.2348 17.5 12.5V16.5C17.5 16.7652 17.3946 17.0196 17.2071 17.2071C17.0196 17.3946 16.7652 17.5 16.5 17.5H12.5C12.2348 17.5 11.9804 17.3946 11.7929 17.2071C11.6054 17.0196 11.5 16.7652 11.5 16.5V12.5C11.5 12.2348 11.6054 11.9804 11.7929 11.7929C11.9804 11.6054 12.2348 11.5 12.5 11.5ZM4.5 11.5H8.5C8.76522 11.5 9.01957 11.6054 9.20711 11.7929C9.39464 11.9804 9.5 12.2348 9.5 12.5V16.5C9.5 16.7652 9.39464 17.0196 9.20711 17.2071C9.01957 17.3946 8.76522 17.5 8.5 17.5H4.5C4.23478 17.5 3.98043 17.3946 3.79289 17.2071C3.60536 17.0196 3.5 16.7652 3.5 16.5V12.5C3.5 12.2348 3.60536 11.9804 3.79289 11.7929C3.98043 11.6054 4.23478 11.5 4.5 11.5Z" stroke="black" stroke-linecap="round" stroke-linejoin="round"/>
</svg>
