<svg width="32" height="32" viewBox="0 0 32 32" fill="none" xmlns="http://www.w3.org/2000/svg">
<path d="M15.9999 2.66675C13.3633 2.66731 10.7859 3.4496 8.59381 4.91473C6.40168 6.37985 4.69315 8.46202 3.68422 10.898C2.67529 13.334 2.41125 16.0145 2.92548 18.6005C3.43971 21.1865 4.70913 23.5621 6.57326 25.4267L25.4266 6.57341C22.9267 4.07276 19.5359 2.6675 15.9999 2.66675Z" fill="#F9E285"/>
<path d="M6.57324 25.4268C7.8032 26.7003 9.27446 27.7161 10.9012 28.4148C12.5279 29.1136 14.2775 29.4814 16.0479 29.4968C17.8183 29.5122 19.574 29.1749 21.2126 28.5044C22.8512 27.834 24.3399 26.844 25.5918 25.5921C26.8437 24.3402 27.8338 22.8515 28.5042 21.2129C29.1746 19.5743 29.512 17.8185 29.4966 16.0481C29.4812 14.2777 29.1134 12.5281 28.4146 10.9014C27.7158 9.27471 26.7 7.80344 25.4266 6.57349L6.57324 25.4268Z" fill="#F5CE34"/>
<path d="M16.0002 26.6668C21.8912 26.6668 26.6668 21.8912 26.6668 16.0002C26.6668 10.1091 21.8912 5.3335 16.0002 5.3335C10.1091 5.3335 5.3335 10.1091 5.3335 16.0002C5.3335 21.8912 10.1091 26.6668 16.0002 26.6668Z" fill="#ED9121"/>
<path d="M10.6665 21.2135C10.6665 21.2135 10.1732 20.6668 11.2132 18.5468C11.2682 18.4194 11.3594 18.311 11.4756 18.2351C11.5918 18.1593 11.7277 18.1193 11.8665 18.1201C12.6671 18.1105 13.462 17.9847 14.2265 17.7468L14.6665 17.3335C13.8236 17.5964 12.949 17.7445 12.0665 17.7735C12.0665 17.7735 11.6265 17.8801 11.9065 17.3868C13.3592 15.0179 15.2671 12.9605 17.5198 11.3335C17.8694 11.0698 18.2739 10.8884 18.7034 10.803C19.1328 10.7176 19.576 10.7303 19.9998 10.8401C20.2796 10.9249 20.5323 11.0811 20.7332 11.2935L21.8798 10.1468C21.4237 9.75123 20.8792 9.4709 20.2922 9.32937C19.7052 9.18785 19.0928 9.18925 18.5065 9.33348C18.2421 9.09397 17.946 8.89207 17.6265 8.73348C16.9732 8.45348 16.2132 9.33348 16.2132 9.33348C15.6788 9.88368 15.0514 10.3351 14.3598 10.6668C12.3319 11.3682 10.5246 12.5915 9.11984 14.2135C7.37317 16.6135 9.61317 17.7601 9.61317 17.7601C9.30485 18.3549 9.1351 19.0116 9.11663 19.6812C9.09816 20.3509 9.23144 21.016 9.50651 21.6268C9.59867 21.8283 9.71031 22.0204 9.83984 22.2001L10.7465 21.2935L10.6665 21.2135ZM9.51984 15.2668C10.2167 14.2324 11.2257 13.4476 12.3998 13.0268C11.3446 14.3332 10.4494 15.7611 9.73317 17.2801C8.35984 16.9468 9.55984 15.2668 9.55984 15.2668H9.51984Z" fill="#F9E285"/>
<path d="M14.6666 17.3334L14.2666 17.7334C14.773 17.5801 15.2473 17.3361 15.6666 17.0134C15.6666 17.0134 15.2533 17.1601 14.6666 17.3334Z" fill="#F5CE34"/>
<path d="M21.8532 10.1467L20.7065 11.2934C21.1065 11.7201 21.3465 12.5067 20.4665 13.9601C18.6063 17.0188 15.9213 19.4912 12.7198 21.0934C12.7198 21.0934 11.2798 21.8667 10.7465 21.2534L9.83984 22.1601C11.1732 24.0001 13.9198 23.2267 13.9198 23.2267C17.1333 22.1679 19.9321 20.1247 21.9198 17.3867C25.0798 13.2401 22.7332 10.9601 22.7332 10.9601C22.4713 10.6568 22.1761 10.3839 21.8532 10.1467Z" fill="#F5CE34"/>
</svg>
